<svg id="Layer_1" data-name="Layer 1" xmlns="http://www.w3.org/2000/svg" xmlns:xlink="http://www.w3.org/1999/xlink" viewBox="0 0 453.5 453.5"><defs><style>.cls-1{fill:#85d5f7;}.cls-2{fill:#3fbda8;}.cls-3{fill:#f37e8e;}.cls-4{fill:#b72128;}.cls-5{fill:#f8a597;}.cls-6{fill:#cc6f60;}.cls-7{fill:#dd8e7c;}.cls-8{fill:#7f9acf;}.cls-9{fill:#814fa0;}.cls-10{fill:#438e80;}.cls-11{fill:#efefef;}.cls-12{fill:#c7e8ec;}.cls-13{fill:#61bcc1;}.cls-14{fill:#73ccd4;}.cls-15{fill:#d75f85;}.cls-16{fill:#ba3e6e;}.cls-17{fill:#69c6b6;}.cls-18{fill:#26ab91;}.cls-19{fill:#00b6d1;}.cls-20{fill:#2fbfc9;}.cls-21{fill:#8bd1c6;}.cls-22{fill:#ba1e57;}.cls-23{fill:#e16684;}.cls-24{fill:#e37792;}.cls-25{fill:#de7a98;}.cls-26{fill:#cd4977;}.cls-27{fill:#e496b1;}.cls-28{opacity:0.3;}.cls-29{fill:#cd5a84;}.cls-30{fill:#a4abce;}.cls-31{opacity:0.7;}.cls-32{fill:#06afb7;}.cls-33{fill:#79cbc6;}.cls-34{opacity:0.5;}.cls-35{fill:#57b3b6;}.cls-36{fill:#2fb1b9;}.cls-37{fill:#a6dce3;}.cls-38{fill:#9ed8d8;}.cls-39{fill:#aedad4;}.cls-40{fill:#80c7b8;}.cls-41{fill:#71c3b4;}.cls-42{fill:#c5e4dc;}.cls-43{fill:#95cfc6;}.cls-44{fill:#95cecc;}.cls-45{fill:#9fc5d6;}.cls-46{fill:#afd4dd;}.cls-47{fill:#daf0f6;}.cls-48{fill:#dae9f7;}.cls-49{fill:#bfd5e5;}.cls-50{fill:#a3bed1;}.cls-51{fill:#bad3e2;}.cls-52{fill:#cedae0;}.cls-53{fill:#b3e1e6;}.cls-54{fill:#e5f4f6;}.cls-55{fill:#abd0d2;}.cls-56{fill:#c1e0e0;}.cls-57{fill:#daeae9;}.cls-58{fill:#5cbcb7;}.cls-59{fill:#7dcdc7;}.cls-60{fill:#c171ae;}.cls-61{fill:#d8a0c8;}.cls-62{fill:#ae72b0;}.cls-63{fill:#9f71b1;}.cls-64{fill:#6b3393;}.cls-65{fill:#a37bb7;}.cls-66{fill:#542c7c;}.cls-67{fill:#8b65ab;}.cls-68{fill:#db3b7d;}.cls-69{fill:#c3c9df;}.cls-70{fill:#b0e0e5;}.cls-71{fill:#8bd7f8;}.cls-72{fill:#91a7d6;}.cls-73{fill:#647fb0;}.cls-74{fill:#7ea3d5;}.cls-75{fill:#a4caeb;}.cls-76{fill:#dbf0f5;}.cls-77{fill:#593a70;}.cls-78{fill:#9fabcc;}.cls-79{fill:#fac4bd;}.cls-80{fill:#f58b7e;}.cls-81{fill:#f7a49f;}.cls-82{fill:#dd6294;}.cls-83{fill:#818586;}.cls-84{fill:#a3a6a7;}.cls-85{fill:#5c5f60;}.cls-86{fill:none;}.cls-87{fill:url(#radial-gradient);}.cls-88{fill:url(#radial-gradient-2);}.cls-89{fill:url(#radial-gradient-3);}.cls-90{fill:url(#radial-gradient-4);}.cls-91{fill:url(#radial-gradient-5);}.cls-92{fill:url(#radial-gradient-6);}.cls-93{fill:url(#radial-gradient-7);}.cls-94{fill:url(#radial-gradient-8);}.cls-95{fill:url(#radial-gradient-9);}.cls-96{fill:url(#radial-gradient-10);}.cls-97{fill:url(#radial-gradient-11);}.cls-98{fill:url(#radial-gradient-12);}.cls-99{fill:url(#radial-gradient-13);}.cls-100{fill:url(#radial-gradient-14);}.cls-101{fill:url(#radial-gradient-15);}.cls-102{fill:#3b1700;}.cls-103{fill:url(#radial-gradient-16);}.cls-104{fill:url(#radial-gradient-17);}.cls-105{fill:url(#radial-gradient-18);}.cls-106{fill:url(#radial-gradient-19);}.cls-107{fill:url(#radial-gradient-20);}.cls-108{fill:url(#radial-gradient-21);}.cls-109{fill:url(#radial-gradient-22);}.cls-110{fill:url(#radial-gradient-23);}.cls-111{fill:url(#radial-gradient-24);}.cls-112{fill:url(#radial-gradient-25);}.cls-113{fill:url(#radial-gradient-26);}.cls-114{fill:url(#radial-gradient-27);}.cls-115{fill:url(#radial-gradient-28);}.cls-116{fill:url(#radial-gradient-29);}.cls-117{fill:#180000;}.cls-118{fill:url(#radial-gradient-30);}.cls-119{fill:url(#radial-gradient-31);}.cls-120{fill:url(#radial-gradient-32);}.cls-121{fill:url(#radial-gradient-33);}.cls-122{fill:url(#radial-gradient-34);}.cls-123{fill:url(#radial-gradient-35);}.cls-124{fill:url(#radial-gradient-36);}.cls-125{fill:url(#radial-gradient-37);}.cls-126{fill:url(#radial-gradient-38);}.cls-127{fill:url(#radial-gradient-39);}.cls-128{fill:url(#radial-gradient-40);}.cls-129{fill:url(#radial-gradient-41);}.cls-130{fill:url(#radial-gradient-42);}.cls-131{fill:url(#radial-gradient-43);}.cls-132{fill:url(#radial-gradient-44);}.cls-133{fill:url(#radial-gradient-45);}.cls-134{fill:url(#radial-gradient-46);}.cls-135{fill:url(#radial-gradient-47);}</style><radialGradient id="radial-gradient" cx="205.71" cy="118.56" r="13.2" gradientTransform="matrix(1, 0, 0, -1, 0, 456)" gradientUnits="userSpaceOnUse"><stop offset="0" stop-color="#fbad18"/><stop offset="0.13" stop-color="#efa51b"/><stop offset="0.3" stop-color="#d8931f"/><stop offset="0.48" stop-color="#b77920"/><stop offset="0.68" stop-color="#8e5a1c"/><stop offset="0.89" stop-color="#623812"/><stop offset="1" stop-color="#4c2608"/></radialGradient><radialGradient id="radial-gradient-2" cx="202.52" cy="123.9" r="61.06" xlink:href="#radial-gradient"/><radialGradient id="radial-gradient-3" cx="123.13" cy="145.42" r="115.66" xlink:href="#radial-gradient"/><radialGradient id="radial-gradient-4" cx="184.88" cy="89.99" r="36.4" xlink:href="#radial-gradient"/><radialGradient id="radial-gradient-5" cx="245.47" cy="136.73" r="116.91" xlink:href="#radial-gradient"/><radialGradient id="radial-gradient-6" cx="140.5" cy="116.23" r="55.51" xlink:href="#radial-gradient"/><radialGradient id="radial-gradient-7" cx="175.47" cy="89.85" r="30.38" xlink:href="#radial-gradient"/><radialGradient id="radial-gradient-8" cx="279.59" cy="130.02" r="141.33" xlink:href="#radial-gradient"/><radialGradient id="radial-gradient-9" cx="117.76" cy="113.36" r="70.68" xlink:href="#radial-gradient"/><radialGradient id="radial-gradient-10" cx="180.71" cy="100.33" r="9.58" xlink:href="#radial-gradient"/><radialGradient id="radial-gradient-11" cx="198.55" cy="198.41" r="17.78" xlink:href="#radial-gradient"/><radialGradient id="radial-gradient-12" cx="234.86" cy="200.64" r="63.41" xlink:href="#radial-gradient"/><radialGradient id="radial-gradient-13" cx="185.37" cy="201.95" r="19.46" xlink:href="#radial-gradient"/><radialGradient id="radial-gradient-14" cx="184.25" cy="191.53" r="80.23" xlink:href="#radial-gradient"/><radialGradient id="radial-gradient-15" cx="259.43" cy="124.91" r="193.58" xlink:href="#radial-gradient"/><radialGradient id="radial-gradient-16" cx="237.94" cy="191.27" r="143.46" xlink:href="#radial-gradient"/><radialGradient id="radial-gradient-17" cx="81.04" cy="199.33" r="107.78" xlink:href="#radial-gradient"/><radialGradient id="radial-gradient-18" cx="244.65" cy="192.35" r="130.93" xlink:href="#radial-gradient"/><radialGradient id="radial-gradient-19" cx="72.98" cy="191.27" r="95.92" xlink:href="#radial-gradient"/><radialGradient id="radial-gradient-20" cx="35.11" cy="191.27" r="113.67" xlink:href="#radial-gradient"/><radialGradient id="radial-gradient-21" cx="126.44" cy="191.81" r="119.32" xlink:href="#radial-gradient"/><radialGradient id="radial-gradient-22" cx="147.4" cy="191.28" r="83.19" xlink:href="#radial-gradient"/><radialGradient id="radial-gradient-23" cx="253.79" cy="134.04" r="94.15" xlink:href="#radial-gradient"/><radialGradient id="radial-gradient-24" cx="134.05" cy="116.4" r="35.36" xlink:href="#radial-gradient"/><radialGradient id="radial-gradient-25" cx="261.23" cy="217.24" r="95.53" xlink:href="#radial-gradient"/><radialGradient id="radial-gradient-26" cx="260.33" cy="224.59" r="86.63" xlink:href="#radial-gradient"/><radialGradient id="radial-gradient-27" cx="215.55" cy="249.48" r="78" xlink:href="#radial-gradient"/><radialGradient id="radial-gradient-28" cx="242.46" cy="216.04" r="45.76" xlink:href="#radial-gradient"/><radialGradient id="radial-gradient-29" cx="242.46" cy="212.14" r="31.97" xlink:href="#radial-gradient"/><radialGradient id="radial-gradient-30" cx="282.28" cy="176.43" r="173.16" gradientTransform="matrix(1, 0, 0, -1, 0, 456)" gradientUnits="userSpaceOnUse"><stop offset="0" stop-color="#3c7dc0"/><stop offset="0.22" stop-color="#3a6cab"/><stop offset="0.68" stop-color="#324685"/><stop offset="1" stop-color="#2d296e"/></radialGradient><radialGradient id="radial-gradient-31" cx="233.62" cy="165.17" r="81.13" xlink:href="#radial-gradient-30"/><radialGradient id="radial-gradient-32" cx="270.78" cy="187.68" r="69.94" xlink:href="#radial-gradient-30"/><radialGradient id="radial-gradient-33" cx="286.14" cy="195.36" r="148.01" xlink:href="#radial-gradient-30"/><radialGradient id="radial-gradient-34" cx="216.88" cy="151.3" r="80.08" xlink:href="#radial-gradient-30"/><radialGradient id="radial-gradient-35" cx="303.93" cy="38.67" r="206.9" xlink:href="#radial-gradient-30"/><radialGradient id="radial-gradient-36" cx="213.22" cy="141.62" r="75.89" xlink:href="#radial-gradient-30"/><radialGradient id="radial-gradient-37" cx="312.66" cy="176.17" r="157.74" xlink:href="#radial-gradient-30"/><radialGradient id="radial-gradient-38" cx="268.69" cy="175.12" r="69.28" xlink:href="#radial-gradient-30"/><radialGradient id="radial-gradient-39" cx="176.9" cy="116.49" r="128.81" xlink:href="#radial-gradient-30"/><radialGradient id="radial-gradient-40" cx="214.59" cy="78.11" r="94.57" xlink:href="#radial-gradient-30"/><radialGradient id="radial-gradient-41" cx="316.15" cy="169.19" r="132.27" xlink:href="#radial-gradient-30"/><radialGradient id="radial-gradient-42" cx="252.46" cy="179.29" r="39.72" xlink:href="#radial-gradient-30"/><radialGradient id="radial-gradient-43" cx="153.17" cy="119.63" r="138.57" xlink:href="#radial-gradient-30"/><radialGradient id="radial-gradient-44" cx="209.71" cy="84.04" r="79.79" xlink:href="#radial-gradient-30"/><radialGradient id="radial-gradient-45" cx="316.53" cy="176.17" r="112.41" xlink:href="#radial-gradient-30"/><radialGradient id="radial-gradient-46" cx="154.18" cy="132.89" r="97.81" xlink:href="#radial-gradient-30"/><radialGradient id="radial-gradient-47" cx="200.27" cy="102.19" r="54.94" xlink:href="#radial-gradient-30"/></defs><title>Artboard 1web</title><polygon class="cls-1" points="330.2 282.1 323.9 326.3 351.1 301.4 330.2 282.1"/><polygon class="cls-2" points="251.8 401.9 248.9 430 267.7 413.3 251.8 401.9"/><polygon class="cls-3" points="133.9 119.6 124.5 81.1 110.4 126.2 133.9 119.6"/><polygon class="cls-4" points="129.8 103.1 140.6 129.9 110.4 126.3 119 116.4 129.8 103.1"/><polygon class="cls-5" points="96 151.1 69 107.4 115.9 85.3 112.1 128.8 96 151.1"/><polygon class="cls-6" points="180.9 66.4 177.7 46.6 167.5 71.8 180.9 66.4"/><polygon class="cls-7" points="156.8 85.7 124.5 81.1 130.2 109.3 156.8 85.7"/><polygon class="cls-8" points="93.3 159.5 101.2 182.5 90.3 200 93.3 159.5"/><polygon class="cls-9" points="395.8 206.3 397.1 226.8 382.9 223 395.8 206.3"/><polygon class="cls-10" points="181.2 383.1 151.1 414.8 148.4 388.5 181.2 383.1"/><polygon class="cls-11" points="52.3 156.5 48.3 160.5 54.6 162.4 52.3 156.5"/><polygon class="cls-12" points="47.4 243.8 55.3 210 57.1 217.8 57.1 253 47.4 243.8"/><polygon class="cls-13" points="64.3 251.6 83.5 243.8 84.7 263.1 69.9 277.2 64.3 251.6"/><polygon class="cls-14" points="35.1 301.4 47.4 243.8 64.3 251.6 70.4 279.4 35.1 301.4"/><polygon class="cls-15" points="232.7 35.9 254.8 58.1 234.1 59.5 232.7 35.9"/><polygon class="cls-15" points="236.5 55.4 248.9 121.4 251.9 87.8 236.5 55.4"/><polygon class="cls-16" points="235.8 62.3 236.5 55.4 249.4 113.3 238.4 92 235.8 62.3"/><polygon class="cls-17" points="35.1 301.4 84.7 263.1 131.8 390.9 35.1 301.4"/><polygon class="cls-14" points="73.1 364.9 73.1 336.5 131.8 390.9 73.1 364.9"/><polygon class="cls-18" points="84.7 263.2 107.3 271.2 98.6 300.9 84.7 263.2"/><polygon class="cls-19" points="107.3 271.2 121.4 336.5 98.6 300.9 107.3 271.2"/><polygon class="cls-20" points="117.2 351.7 121.4 336.5 98.6 300.9 117.2 351.7"/><polygon class="cls-2" points="131.8 390.9 184.1 383.1 186.7 363.7 151.1 348.5 124.5 371.1 131.8 390.9"/><polygon class="cls-21" points="121.4 336.5 151.1 348.5 124.5 371.1 117.2 351.7 121.4 336.5"/><polygon class="cls-14" points="121.4 336.5 124.5 316.2 111.7 291.8 121.4 336.5"/><polygon class="cls-22" points="135.6 109.3 126.1 134.3 135.6 137.9 146.3 123.6 135.6 109.3"/><polygon class="cls-23" points="167.5 102.8 167.5 129.9 202.4 144.6 249.4 113.3 231.8 61 213.9 39.5 194.2 66.4 167.5 102.8"/><polygon class="cls-24" points="167.5 129.9 187 109.3 167.5 102.8 167.5 129.9"/><polygon class="cls-15" points="187 109.3 202.4 144.6 167.5 129.9 187 109.3"/><polygon class="cls-15" points="167.5 129.9 133 121.4 130.2 109.3 167.5 102.8 167.5 129.9"/><polygon class="cls-25" points="130.2 109.3 156.8 85.7 162.4 90.2 130.2 109.3"/><polygon class="cls-26" points="167.5 102.8 162.4 90.2 130.2 109.3 167.5 102.8"/><polygon class="cls-15" points="162.4 90.2 194.2 66.4 167.5 102.8 162.4 90.2"/><polygon class="cls-27" points="156.8 85.7 162.4 90.2 194.2 66.4 194.2 53.3 167.5 71.8 156.8 85.7"/><polygon class="cls-26" points="194.2 52.7 202.4 55.3 194.2 66.4 194.2 52.7"/><polygon class="cls-26" points="133 121.4 152.3 151 167.5 129.9 133 121.4"/><polygon class="cls-26" points="231.8 61 236.5 55.4 242.2 92 231.8 61"/><polygon class="cls-26" points="115.9 186.5 115.9 171 122.1 183 115.9 186.5"/><polygon class="cls-15" points="115.9 186.5 104.9 182.1 115.9 171 115.9 186.5"/><polygon class="cls-22" points="167.5 129.9 169.2 144.6 152.3 151 167.5 129.9"/><polygon class="cls-27" points="194.2 66.4 187 109.3 167.5 102.8 194.2 66.4"/><polygon class="cls-15" points="231.8 61 202.4 144.6 249.4 113.3 231.8 61"/><g class="cls-28"><polygon class="cls-27" points="194.2 66.4 231.8 61 213.9 39.5 194.2 66.4"/></g><polygon class="cls-29" points="248.9 113.8 254.8 58.1 299.1 105.3 248.9 113.8"/><polygon class="cls-16" points="236.5 55.4 254.8 58.1 251.9 87.8 236.5 55.4"/><polygon class="cls-16" points="231.8 61 232.7 35.9 236.5 55.4 231.8 61"/><polygon class="cls-27" points="249.4 113.3 249.4 134.3 240.5 119.2 249.4 113.3"/><polygon class="cls-15" points="249.4 112.8 249.4 134.3 299.1 104.9 249.4 112.8"/><polygon class="cls-22" points="298.8 104.9 307 119.8 271.9 132.8 271.9 120.8 298.8 104.9"/><polygon class="cls-23" points="298.8 104.9 310.6 87.8 332.3 97.5 330.2 118.9 307 119.8 298.8 104.9"/><polygon class="cls-30" points="90.6 217.8 57.1 193.4 93.3 159.5 90.6 217.8"/><polygon class="cls-23" points="356.1 156.9 342.7 141.6 362.2 129.9 373.5 139.9 371.6 159.7 356.1 156.9"/><polygon class="cls-23" points="193.8 53.3 204.9 23.7 202.4 55.3 193.8 53.3"/><polygon class="cls-25" points="204.9 23.7 194.2 53.3 178.3 64.3 177.2 34.5 204.9 23.7"/><polygon class="cls-27" points="352.4 178.3 345.1 169.7 356.1 156.9 371.6 159.7 352.4 178.3"/><polygon class="cls-23" points="213.9 39.5 232.7 35.9 231.8 61 213.9 39.5"/><polygon class="cls-14" points="273.6 364.2 282.3 330.4 153.8 396.6 230 389 273.6 364.2"/><polygon class="cls-14" points="273.6 364.2 252.9 345.6 282.3 330.4 273.6 364.2"/><g class="cls-31"><polygon class="cls-14" points="273.6 364.2 273.6 384.7 230 389 273.6 364.2"/></g><polygon class="cls-14" points="273.6 384.7 325.7 322.7 282.3 330.4 273.6 364.2 273.6 384.7"/><polygon class="cls-32" points="273.6 384.7 273.6 364.2 298.1 355.4 273.6 384.7"/><g class="cls-28"><polygon class="cls-14" points="325.7 322.7 334.1 347.3 298.1 355.4 325.7 322.7"/></g><polygon class="cls-33" points="298.1 355.4 355.8 388.2 355.8 347.3 333.4 347.5 298.1 355.4"/><g class="cls-34"><polygon class="cls-14" points="273.6 384.7 323.9 370 298.1 355.4 273.6 384.7"/></g><polygon class="cls-14" points="323.9 370 273.6 384.7 308.5 430 323.9 370"/><polygon class="cls-14" points="308.5 430 323.9 370 273.6 384.7 308.5 430"/><polygon class="cls-14" points="308.5 430 323.9 370 355.8 388.2 308.5 430"/><g class="cls-34"><polygon class="cls-14" points="333.4 347.5 355.8 388.2 298.1 355.4 333.4 347.5"/></g><polygon class="cls-35" points="230 389 153.8 396.6 199.8 414.8 230 389"/><polygon class="cls-14" points="267.4 414.8 308.5 430 273.6 384.7 267.4 414.8"/><polygon class="cls-36" points="230 389 267.4 414.8 273.6 384.7 230 389"/><polygon class="cls-37" points="83.5 243.8 90.3 217.8 90.3 249.5 84.7 263.1 83.5 243.8"/><polygon class="cls-38" points="64.3 251.6 70.4 235.9 57.1 234.4 57.1 248.3 64.3 251.6"/><polygon class="cls-39" points="93.1 160 98.6 110.9 112.1 125 93.1 160"/><polygon class="cls-40" points="361 284.6 368 325.4 311.7 270.2 361 284.6"/><polygon class="cls-41" points="47.5 361.4 61.6 375.2 52.7 375.4 27.2 355.5 47.5 361.4"/><polygon class="cls-42" points="402.6 52.7 447.5 10 403.5 23.8 402.6 52.7"/><polygon class="cls-39" points="420.8 67.9 417.6 78.8 372.3 81.5 420.8 67.9"/><polygon class="cls-39" points="391.6 301.1 348.5 281.2 374.7 269.2 391.6 301.1"/><polygon class="cls-42" points="391.6 301.1 406 291.8 386.5 272.6 375.5 270.7 391.6 301.1"/><polygon class="cls-39" points="406 291.8 404.3 297.8 391.6 301.1 406 291.8"/><polygon class="cls-42" points="86.3 166.1 93.3 159.5 98.6 110.9 86.3 166.1"/><polygon class="cls-43" points="61.6 375.2 46.3 383.9 52.7 375.4 61.6 375.2"/><polygon class="cls-43" points="308.5 120.2 332.4 108 324.9 83 308.5 120.2"/><polygon class="cls-42" points="324.9 83 332.4 88.7 332.4 108 324.9 83"/><g class="cls-34"><polygon class="cls-42" points="300.1 147.1 261 167 308.5 120.2 300.1 147.1"/></g><polygon class="cls-40" points="27.2 355.5 46.3 383.9 53 375 27.2 355.5"/><polygon class="cls-12" points="57.1 193.4 65.5 217.8 84.7 213.5 57.1 193.4"/><polygon class="cls-44" points="84.7 213.5 83.5 243.8 90.7 217.5 84.7 213.5"/><polygon class="cls-38" points="83.5 243.8 83.9 233.2 70.4 235.9 64.3 251.6 83.5 243.8"/><polygon class="cls-45" points="65.5 217.8 70.4 235.9 83.9 233.2 84.7 213.5 65.5 217.8"/><polygon class="cls-46" points="70.4 235.9 57.1 234.4 57.1 217.8 65.5 217.8 70.4 235.9"/><polygon class="cls-47" points="57.1 193.4 55.3 210 57.1 217.8 65.5 217.8 57.1 193.4"/><polygon class="cls-48" points="57.1 193.4 57.1 168.6 49.5 171.2 55.3 210 57.1 193.4"/><polygon class="cls-49" points="57.1 193.4 57.1 168.6 66.7 164.2 70.9 180.5 57.1 193.4"/><polygon class="cls-50" points="66.7 164.2 70.9 180.5 86.3 166.1 70.9 148.9 66.7 164.2"/><polygon class="cls-51" points="66.7 164.2 57.1 148.9 70.9 148.9 66.7 164.2"/><polygon class="cls-52" points="57.1 168.6 66.7 164.2 57.1 148.9 52.3 156.5 57.1 168.6"/><polygon class="cls-53" points="252.9 345.6 208.4 353.7 194.2 367.8 192.7 376.6 252.9 345.6"/><polygon class="cls-10" points="186.7 363.7 192.7 376.6 184.4 380.9 186.7 363.7"/><path class="cls-12" d="M355.8,278.1c.6-3.5-21.7-72.5-21.7-72.5l19.7-29.4,2,17.2,7,61.8Z"/><polygon class="cls-54" points="362.8 255.2 369.1 245.5 384 255.2 375 269.2 362.8 255.2"/><polygon class="cls-55" points="353.8 176.2 380.9 193.4 357.7 210 353.8 176.2"/><polygon class="cls-56" points="362.8 255.2 361.5 243 365.6 238.7 369.1 245.5 362.8 255.2"/><polygon class="cls-57" points="337 201.3 337 167 345.4 170.6 345.4 188.6 337 201.3"/><polygon class="cls-58" points="380.9 193.4 395.8 206.3 377.8 231.2 380.9 193.4"/><polygon class="cls-59" points="380.9 193.4 357.7 210 377.8 231.2 380.9 193.4"/><polygon class="cls-60" points="330.2 118.9 342.7 141.6 331.2 109.3 330.2 118.9"/><polygon class="cls-61" points="308.5 119.7 315.6 159.7 339.6 161.2 342.7 141.6 330.2 118.9 308.5 119.7"/><polygon class="cls-60" points="356.1 156.9 339.6 161.2 342.7 141.6 356.1 156.9"/><polygon class="cls-62" points="339.6 161.2 345.4 170.6 356.1 156.9 339.6 161.2"/><polygon class="cls-63" points="345.4 170.6 337 167 339.6 161.2 345.4 170.6"/><polygon class="cls-63" points="320.4 160 324.9 171.6 339.6 161.2 320.4 160"/><polygon class="cls-9" points="324.9 171.6 328.1 177 339.6 161.2 324.9 171.6"/><polygon class="cls-9" points="308.6 120 300.1 147.1 305.4 153.1 314.2 151.4 308.6 120"/><polygon class="cls-64" points="305.4 153.1 308.6 120 314.2 151.4 305.4 153.1"/><polygon class="cls-65" points="300.1 147.1 304.5 164.6 305.4 153.1 300.1 147.1"/><polygon class="cls-66" points="314.2 151.4 304.5 164.6 305.4 153.1 314.2 151.4"/><polygon class="cls-66" points="140 132.1 145.2 140 135.6 147.1 135.6 137.9 140 132.1"/><polygon class="cls-26" points="87.1 409.9 117.9 427.4 121.6 401.7 87.1 409.9"/><polygon class="cls-22" points="121.6 401.7 129.9 413.9 117.9 427.4 121.6 401.7"/><polygon class="cls-22" points="87.1 409.9 117.9 427.4 97 423.4 87.1 409.9"/><polygon class="cls-67" points="126.1 134.3 112.1 125 113.3 144.8 126.1 134.3"/><polygon class="cls-68" points="135.6 147.1 113.3 144.8 126.1 134.3 135.6 137.9 135.6 147.1"/><polygon class="cls-22" points="116.6 160 135.6 147.1 113.3 144.8 116.6 160"/><polygon class="cls-15" points="126.1 134.3 112.1 125 132.2 118.2 126.1 134.3"/><polygon class="cls-69" points="112.1 125 93.3 159.5 113.3 144.8 112.1 125"/><polygon class="cls-69" points="375 269.2 362.8 255.2 355.8 278.1 375 269.2"/><polygon class="cls-70" points="325.7 322.7 344.2 301.1 350.2 304 334.1 347.3 325.7 322.7"/><polygon class="cls-71" points="355.8 347.3 339.7 332.3 333.4 347.5 355.8 347.3"/><polygon class="cls-72" points="355.8 347.3 391.6 301.1 356.9 285.1 339.7 332.3 355.8 347.3"/><polygon class="cls-1" points="350.1 304.2 344.2 301.1 343.1 291 356.9 285.1 350.1 304.2"/><polygon class="cls-1" points="404.3 297.8 394.6 312.3 391.6 301.1 404.3 297.8"/><polygon class="cls-73" points="355.8 347.3 394.6 312.3 391.6 301.1 355.8 347.3"/><polygon class="cls-74" points="394.4 312 398.8 325.7 378.6 326.8 394.4 312"/><polygon class="cls-74" points="386.5 272.6 391.6 234.7 406 291.8 386.5 272.6"/><polygon class="cls-70" points="384 255.2 369.1 245.5 391.6 234.7 384 255.2"/><polygon class="cls-75" points="391.6 234.7 386.5 272.6 374.3 270.3 391.6 234.7"/><polygon class="cls-55" points="361.5 243 357.7 210 377.8 231.2 361.5 243"/><polygon class="cls-76" points="366.1 239.7 391.6 234.7 369.1 245.5 366.1 239.7"/><polygon class="cls-77" points="383.6 223.2 384.6 227.1 397.1 226.8 383.6 223.2"/><polygon class="cls-14" points="93.3 159.5 98.6 174.6 116.6 160 93.3 159.5"/><polygon class="cls-78" points="113.3 144.8 116.6 160 93.3 159.5 113.3 144.8"/><polygon class="cls-6" points="167.5 71.8 156.8 85.7 124.5 81.1 167.5 71.8"/><polygon class="cls-5" points="124.5 81.1 126.1 46.6 133 51.5 143.4 77 124.5 81.1"/><polygon class="cls-5" points="164.3 39 177.2 34.7 177.7 46.6 164.3 39"/><polygon class="cls-79" points="167.5 71.8 164.3 39 177.7 46.6 167.5 71.8"/><polygon class="cls-80" points="167.5 71.8 143.4 77 139.6 67.6 167.5 71.8"/><polygon class="cls-80" points="213.9 39.5 204.9 23.8 218.7 29.5 232.7 35.9 213.9 39.5"/><polygon class="cls-81" points="204.9 23.8 202.4 55.3 213.9 39.5 204.9 23.8"/><polygon class="cls-80" points="124.5 81.1 115.9 85.3 106.7 102.8 112.1 125 124.5 81.1"/><polygon class="cls-22" points="254.8 58.1 278.3 62.7 291.8 97.5 254.8 58.1"/><polygon class="cls-22" points="298.8 104.9 291.8 97.5 297 92 304.5 96.6 298.8 104.9"/><polygon class="cls-82" points="278.3 62.7 297 92 291.8 97.5 278.3 62.7"/><polygon class="cls-23" points="51.5 40.6 60.4 23.8 64.3 39 60.4 44 51.5 40.6"/><polygon class="cls-80" points="52.8 20.8 51.5 40.6 60.4 23.8 52.8 20.8"/><polygon class="cls-6" points="51.5 40.6 54.5 46.6 60.4 44 51.5 40.6"/><polygon class="cls-18" points="43.3 309 73.1 347.5 73.1 336.5 43.3 309"/><polygon class="cls-9" points="355.8 347.3 355.8 388.2 366.1 338.1 355.8 347.3"/><polygon class="cls-83" points="295.3 198.9 301.5 192.7 295.3 186.6 286.7 186.6 286.7 198.9 295.3 198.9"/><polygon class="cls-83" points="316.3 198.9 316.3 186.6 307.7 186.6 301.5 192.7 307.7 198.9 316.3 198.9"/><polygon class="cls-84" points="328.7 198.9 316.3 186.6 316.3 198.9 328.7 198.9"/><polygon class="cls-84" points="295.3 198.9 307.7 198.9 301.5 192.7 295.3 198.9"/><polygon class="cls-84" points="286.7 198.9 286.7 186.6 274.3 198.9 286.7 198.9"/><polygon class="cls-85" points="316.3 198.9 316.3 242.3 317.9 240.6 319.4 242.3 320.9 240.6 322.5 242.3 324 240.6 325.6 242.3 327.1 240.6 328.7 242.3 328.7 198.9 316.3 198.9"/><polygon class="cls-85" points="295.3 198.9 295.3 242.3 296.9 240.6 298.4 242.3 299.9 240.6 301.5 242.3 303 240.6 304.6 242.3 306.1 240.6 307.7 242.3 307.7 198.9 295.3 198.9"/><polygon class="cls-85" points="286.7 198.9 274.3 198.9 274.3 242.3 275.9 240.6 277.4 242.3 279 240.6 280.5 242.3 282 240.6 283.6 242.3 285.1 240.6 286.7 242.3 286.7 198.9"/><rect class="cls-86" x="124.8" y="198.8" width="18.6" height="14.1"/><rect class="cls-85" x="112.4" y="225.3" width="12.4" height="17.1"/><rect class="cls-85" x="112.4" y="198.8" width="12.4" height="14.1"/><rect class="cls-85" x="143.4" y="225.3" width="12.4" height="17.1"/><rect class="cls-85" x="143.4" y="198.8" width="12.4" height="14.1"/><rect class="cls-84" x="112.4" y="212.9" width="12.4" height="12.4"/><polygon class="cls-84" points="155.8 212.9 143.4 212.9 143.4 225.3 155.8 225.3 155.8 222.9 155.8 212.9"/><rect class="cls-83" x="124.8" y="212.9" width="18.6" height="12.4"/><rect class="cls-83" x="124.8" y="186.4" width="18.6" height="12.4"/><polygon class="cls-84" points="124.8 186.4 112.4 198.8 124.8 198.8 124.8 186.4"/><polygon class="cls-84" points="155.8 198.8 143.4 186.4 143.4 198.8 155.8 198.8"/><polygon class="cls-83" points="112.4 225.3 108.9 225.3 110.7 223.8 108.9 222.2 110.7 220.7 108.9 219.1 110.7 217.6 108.9 216 110.7 214.5 108.9 212.9 112.4 212.9 112.4 225.3"/><polygon class="cls-83" points="155.8 212.9 159.3 212.9 157.5 214.5 159.3 216 157.5 217.6 159.3 219.1 157.5 220.7 159.3 222.2 157.5 223.8 159.3 225.3 155.8 225.3 155.8 212.9"/><rect class="cls-86" x="180.1" y="198.8" width="18.9" height="31.2"/><rect class="cls-85" x="167.7" y="198.8" width="12.4" height="31.2"/><rect class="cls-85" x="199" y="198.8" width="12.4" height="31.2"/><polygon class="cls-83" points="199 198.8 199 186.4 199 186.4 180.1 186.4 180.1 198.8 199 198.8"/><rect class="cls-83" x="180.1" y="230" width="18.9" height="12.4"/><rect class="cls-84" x="167.7" y="186.4" width="12.4" height="12.4"/><polygon class="cls-84" points="199 198.8 211.4 198.8 199 186.4 199 198.8"/><rect class="cls-84" x="167.7" y="230" width="12.4" height="12.4"/><polygon class="cls-84" points="199 242.4 211.4 230 199 230 199 242.4"/><polygon class="cls-83" points="167.7 242.4 164.2 242.4 165.9 240.9 164.2 239.3 165.9 237.8 164.2 236.2 165.9 234.7 164.2 233.1 165.9 231.6 164.2 230 167.7 230 167.7 242.4"/><polygon class="cls-83" points="167.7 198.8 164.2 198.8 165.9 197.3 164.2 195.7 165.9 194.2 164.2 192.6 165.9 191.1 164.2 189.5 165.9 188 164.2 186.4 167.7 186.4 167.7 198.8"/><rect class="cls-86" x="233.5" y="197.3" width="18.6" height="14.1"/><rect class="cls-85" x="221.1" y="223.8" width="12.4" height="17.1"/><rect class="cls-85" x="221.1" y="197.3" width="12.4" height="14.1"/><rect class="cls-85" x="252" y="223.8" width="12.4" height="17.1"/><rect class="cls-85" x="252" y="197.3" width="12.4" height="14.1"/><rect class="cls-84" x="221.1" y="211.4" width="12.4" height="12.4"/><polygon class="cls-84" points="264.4 211.4 252 211.4 252 223.8 264.4 223.8 264.4 221.4 264.4 211.4"/><rect class="cls-83" x="233.5" y="211.4" width="18.6" height="12.4"/><rect class="cls-83" x="233.5" y="184.9" width="18.6" height="12.4"/><polygon class="cls-84" points="233.5 184.9 221.1 197.3 233.5 197.3 233.5 184.9"/><polygon class="cls-84" points="264.4 197.3 252 184.9 252 197.3 264.4 197.3"/><polygon class="cls-83" points="221.1 223.8 217.6 223.8 219.3 222.3 217.6 220.7 219.3 219.1 217.6 217.6 219.3 216 217.6 214.5 219.3 212.9 217.6 211.4 221.1 211.4 221.1 223.8"/><polygon class="cls-83" points="264.4 211.4 267.9 211.4 266.2 212.9 267.9 214.5 266.2 216 267.9 217.6 266.2 219.1 267.9 220.7 266.2 222.2 267.9 223.8 264.4 223.8 264.4 211.4"/><polygon class="cls-87" points="202.3 342.1 193.2 344.8 168.6 336.6 200 338.2 202.3 342.1"/><polygon class="cls-88" points="195.6 309.8 193.2 344.8 165.9 338 171.7 311 195.6 309.8"/><polygon class="cls-89" points="168.3 326.8 165.9 338 193.2 344.8 194.5 326.8 168.3 326.8"/><polygon class="cls-90" points="172.9 339.7 193.2 344.8 193.6 339.7 172.9 339.7"/><polygon class="cls-91" points="180.2 310.6 171.7 311 165.9 338 180.2 341.5 180.2 310.6"/><polygon class="cls-92" points="180.2 326.8 168.3 326.8 165.9 338 180.2 341.5 180.2 326.8"/><polygon class="cls-93" points="180.2 339.7 172.9 339.7 180.2 341.5 180.2 339.7"/><polygon class="cls-94" points="177.4 310.7 171.7 311 165.9 338 177.4 340.8 177.4 310.7"/><polygon class="cls-95" points="177.4 326.8 168.3 326.8 165.9 338 177.4 340.8 177.4 326.8"/><polygon class="cls-96" points="177.4 339.7 172.9 339.7 177.4 340.8 177.4 339.7"/><polygon class="cls-97" points="202.3 254.2 222.2 250.4 225.8 258 205.5 258 202.3 254.2"/><polygon class="cls-98" points="228 258 195.6 310.7 172 308.9 222.2 250.4 228 258"/><polygon class="cls-99" points="174.1 254.2 164 250.4 139.7 258 173 257.9 174.1 254.2"/><polygon class="cls-100" points="164 250.4 136.2 257.9 171.7 311.9 195.6 310.7 164 250.4"/><polygon class="cls-101" points="164 250.4 136.2 257.9 148 275.9 177.4 275.9 164 250.4"/><polygon class="cls-102" points="195.6 310.7 186.1 292.5 188.7 289.4 195.6 310.7"/><polygon class="cls-102" points="164 250.4 168 258 170 257.9 164 250.4"/><polygon class="cls-102" points="222.2 250.4 215.6 258 212.7 258 222.2 250.4"/><polygon class="cls-102" points="193.2 344.8 193.7 337.9 196 338 193.2 344.8"/><polygon class="cls-103" points="160 294.2 160 251.5 136.2 257.9 160 294.2"/><polygon class="cls-104" points="160 275.9 160 251.5 136.2 257.9 148 275.9 160 275.9"/><polygon class="cls-105" points="154.9 252.8 136.2 257.9 154.9 286.4 154.9 252.8"/><polygon class="cls-106" points="154.9 275.9 154.9 252.8 136.2 257.9 148 275.9 154.9 275.9"/><polygon class="cls-107" points="143.4 256 136.2 257.9 143.4 268.9 143.4 256"/><polygon class="cls-108" points="183.9 311.3 195.6 310.7 183.9 288.3 183.9 311.3"/><polygon class="cls-109" points="189.8 311 195.6 310.7 189.8 299.5 189.8 311"/><polygon class="cls-110" points="170 339 170 318.8 165.9 338 170 339"/><polygon class="cls-111" points="170 326.8 168.3 326.8 165.9 338 170 339 170 326.8"/><polygon class="cls-112" points="203.4 298.1 228 258 222.2 250.4 203.4 272.3 203.4 298.1"/><polygon class="cls-113" points="207.3 291.7 228 258 222.2 250.4 207.3 267.7 207.3 291.7"/><polygon class="cls-114" points="210 264.6 224 264.6 228 258 222.2 250.4 210 264.6"/><polygon class="cls-115" points="218.8 273.1 228 258 222.2 250.4 218.8 254.3 218.8 273.1"/><polygon class="cls-116" points="218.8 264.6 224 264.6 228 258 222.2 250.4 218.8 254.3 218.8 264.6"/><polygon class="cls-117" points="195.6 310.7 191.6 298.1 189 298.1 195.6 310.7"/><polygon class="cls-117" points="164 250.4 166.9 255.8 168.3 255.8 164 250.4"/><polygon class="cls-117" points="217.6 255.8 222.2 250.4 215.6 255.8 217.6 255.8"/><polygon class="cls-117" points="193.5 341.3 193.2 344.8 194.7 341.3 193.5 341.3"/><polygon class="cls-118" points="236.9 247.2 267.3 241.4 272.8 334.1 236.9 331.6 236.9 247.2"/><polygon class="cls-119" points="269.1 333.9 272.8 334.1 269.1 271.2 269.1 333.9"/><polygon class="cls-120" points="267.3 241.4 238.9 246.8 238.9 246.8 267.6 246.8 267.3 241.4"/><polygon class="cls-121" points="236.9 331.6 272.8 334.1 271.1 305 236.9 305 236.9 331.6"/><polygon class="cls-122" points="269.1 305 269.1 333.9 272.8 334.1 271.1 305 269.1 305"/><polygon class="cls-123" points="236.9 331.6 272.8 334.1 271.5 313.3 236.9 313.3 236.9 331.6"/><polygon class="cls-124" points="269.1 313.3 269.1 333.9 272.8 334.1 271.5 313.3 269.1 313.3"/><polygon class="cls-125" points="251.3 244.4 236.9 247.2 236.9 331.6 251.3 332.6 251.3 244.4"/><polygon class="cls-126" points="251.3 246.8 251.3 244.4 238.9 246.8 251.3 246.8"/><polygon class="cls-127" points="251.3 305 236.9 305 236.9 331.6 251.3 332.6 251.3 305"/><polygon class="cls-128" points="251.3 313.3 236.9 313.3 236.9 331.6 251.3 332.6 251.3 313.3"/><polygon class="cls-129" points="246 245.4 236.9 247.2 236.9 331.6 246 332.2 246 245.4"/><polygon class="cls-130" points="246 246.8 246 245.4 240.5 246.5 238.9 246.8 246 246.8"/><polygon class="cls-131" points="246 305 236.9 305 236.9 331.6 246 332.2 246 305"/><polygon class="cls-132" points="246 313.3 236.9 313.3 236.9 331.6 246 332.2 246 313.3"/><polygon class="cls-133" points="238.9 246.8 236.9 247.2 236.9 331.6 238.9 331.7 238.9 246.8"/><polygon class="cls-134" points="238.9 305 236.9 305 236.9 331.6 238.9 331.7 238.9 305"/><polygon class="cls-135" points="238.9 313.3 236.9 313.3 236.9 331.6 238.9 331.7 238.9 313.3"/></svg>