<svg id="Adam_Yi_code" data-name="Adam Yi code" xmlns="http://www.w3.org/2000/svg" viewBox="0 0 24 24"><defs><style>.cls-1{fill:#5e8cef;}.cls-2{fill:#547bd7;}.cls-3{fill:#043392;}.cls-4{fill:#17007b;}.cls-5{fill:#1a499b;}.cls-6{fill:#1b1ba3;}.cls-7{fill:#1a3588;}.cls-8{fill:#3242ac;}.cls-9{fill:#f3f3f3;}.cls-10{fill:#d5d5d5;}.cls-11{fill:#36434f;}.cls-12{fill:#465765;}.cls-13{fill:#fff;}</style></defs><title>Artboard 1web</title><g id="Adam_Yi_code-2" data-name="Adam Yi code"><path id="Shape" class="cls-1" d="M12,0A12,12,0,1,1,0,12,12,12,0,0,1,12,0Z"/><path id="Shape-2" data-name="Shape" class="cls-2" d="M1.11,17H5.76V6.72L0,12.47A11.94,11.94,0,0,0,1.11,17Z"/><path id="Shape-3" data-name="Shape" class="cls-3" d="M12,24a12,12,0,0,0,10.1-5.52H1.9A12,12,0,0,0,12,24Z"/><path id="Shape-4" data-name="Shape" class="cls-4" d="M22.1,18.48H1.9c.16.25.32.49.5.72H21.6c.17-.23.34-.47.5-.72Z"/><path id="Shape-5" data-name="Shape" class="cls-5" d="M14.6,22.17c.36-.21.52-.31.4-.78a6.08,6.08,0,0,1,.33-2.91h-.49c-.26.87-.55,2.21-.19,2.7a.2.2,0,0,1,0,.28.21.21,0,0,1-.29,0c-.48-.63-.16-2.08.09-2.94h-.21a14.65,14.65,0,0,0-.55,2.93c-.14,1.57-.3,2.29-1.05,2.59.31,0,.63,0,.93-.09a1.85,1.85,0,0,1,1.06-1.74Zm1.52-3.69h-.35a6,6,0,0,0-.37,2.82,1,1,0,0,1-.59,1.22A1.43,1.43,0,0,0,14,23.85l.57-.11a1.38,1.38,0,0,1,.28-.61,1.15,1.15,0,0,1,1.52-.29,2,2,0,0,1,.33.23l.47-.21q-.23-.3-.52-.61a3.34,3.34,0,0,1-.49-3.77Zm-1,4.91a.91.91,0,0,0-.14.25,11.82,11.82,0,0,0,1.24-.39l-.08,0a.75.75,0,0,0-1,.19Zm5.94-3.54q.22-.26.43-.53a8.4,8.4,0,0,1,.15-.84h-.45a5.81,5.81,0,0,1-.13,1.37Zm-7.8,1.52a15,15,0,0,1,.53-2.89h-.54a3.62,3.62,0,0,1-1.67,2.8,1.78,1.78,0,0,0-1.06,1.88.87.87,0,0,0,1,.61c1.42,0,1.6-.29,1.78-2.4Zm7.26-2.9a4,4,0,0,1,0,.52,2.8,2.8,0,0,1-1.47,2.56,1.42,1.42,0,0,1-1.59,0,2.41,2.41,0,0,1-.81-2.29,2.21,2.21,0,0,1,.3-.84h-.42A3,3,0,0,0,16.9,22a9.08,9.08,0,0,1,.59.7,12,12,0,0,0,2.88-2.09,4.75,4.75,0,0,0,.4-2.1Zm-11.43,0H8.38a3.21,3.21,0,0,1-1.18.24A15.83,15.83,0,0,0,4.87,19a.2.2,0,1,1-.08-.4l.48-.08h-1A2.25,2.25,0,0,1,3.2,20.14l.18.19,0,0A5.68,5.68,0,0,1,6.71,19a4.28,4.28,0,0,0,2.37-.55Zm13,0v0l0,0ZM10.12,23.27a2.18,2.18,0,0,1,1.25-2.34,3.23,3.23,0,0,0,1.46-2.45h-.26A3.45,3.45,0,0,1,11,20.81a2.74,2.74,0,0,0-1.4,2.91v0c.33.07.67.12,1,.16a1.19,1.19,0,0,1-.45-.66Zm.59-2.78a3.08,3.08,0,0,0,1.45-2h-.53c-.2.7-.85,1.81-2.88,2.43a12.08,12.08,0,0,0-3,1.34l.28.16a1.68,1.68,0,0,1,1.06,0,1.24,1.24,0,0,1,.79.9,11.78,11.78,0,0,0,1.25.38,3.13,3.13,0,0,1,1.57-3.18Zm-6.85-2H3.18a.52.52,0,0,1-.08.44,1.19,1.19,0,0,1-.58.42l.41.5a1.89,1.89,0,0,0,.93-1.35ZM7,22.77a1,1,0,0,0-.37-.05c.25.13.5.25.76.36A.77.77,0,0,0,7,22.77ZM2.76,18.7c.05-.08,0-.11,0-.13a.28.28,0,0,0-.12-.09H1.92q.17.26.35.51a.9.9,0,0,0,.49-.29Zm15,1.8c0,.06.19.23.62,0a1.52,1.52,0,0,0,.83-1.87,1,1,0,0,0-.1-.19h-.59a1,1,0,0,1,.46.65.94.94,0,0,1-.34.88.2.2,0,0,1-.29,0,.2.2,0,0,1,0-.28.54.54,0,0,0,.19-.5.67.67,0,0,0-.51-.49c-.07,0-.15,0-.23.14a1.71,1.71,0,0,0-.07,1.65Zm-6.54-2h-.48a3.44,3.44,0,0,1-2.57,1.58,8.47,8.47,0,0,0-3.43,1.48q.32.25.66.47a12.57,12.57,0,0,1,3.25-1.48,3.52,3.52,0,0,0,2.58-2Zm6.5,2.8a1,1,0,0,0,1.16-.06,2.52,2.52,0,0,0,1.24-2.74h-.55l0,0a1.91,1.91,0,0,1-1,2.38.85.85,0,0,1-1.1-.15,2.09,2.09,0,0,1,0-2.14.94.94,0,0,1,.12-.14h-.13a1.64,1.64,0,0,0-.4.9,2,2,0,0,0,.63,1.9Zm-7.47-2.8H9.72a4.06,4.06,0,0,1-3,1,5.3,5.3,0,0,0-3,1.19c.24.23.48.45.74.66A8.94,8.94,0,0,1,8.1,19.66a3.12,3.12,0,0,0,2.14-1.18Z"/><path id="Shape-6" data-name="Shape" class="cls-6" d="M1.9,18.48H22.1A12,12,0,0,0,22.89,17H1.11a11.93,11.93,0,0,0,.79,1.44Z"/><g id="Group"><path id="Shape-7" data-name="Shape" class="cls-7" d="M16.28,19.2h.42a2.16,2.16,0,0,1,.27-.72h-.42a4.42,4.42,0,0,0-.27.72Zm1.78-.49c-.07,0-.15,0-.23.14a1.29,1.29,0,0,0-.16.35h.9a.67.67,0,0,0-.51-.49Zm-.94.49h.13a1.78,1.78,0,0,1,.24-.58.93.93,0,0,1,.12-.14h-.13a1.55,1.55,0,0,0-.36.72Zm2.46-.68a1.73,1.73,0,0,1,.11.68h.46a3.36,3.36,0,0,0,0-.72h-.55l0,0Zm-.61.61v.07h.3a1.31,1.31,0,0,0-.08-.53,1,1,0,0,0-.1-.19h-.59a1,1,0,0,1,.46.65ZM2.27,19a.9.9,0,0,0,.49-.29c.05-.08,0-.11,0-.13a.28.28,0,0,0-.11-.09H1.92l.35.51Zm8-.51H9.72a3,3,0,0,1-1.26.72h1a2.79,2.79,0,0,0,.81-.72Zm-6.38,0H3.18a.52.52,0,0,1-.08.44,1,1,0,0,1-.31.28h.8a2.19,2.19,0,0,0,.27-.72Zm5.22,0H8.37a3.21,3.21,0,0,1-1.18.24A15.83,15.83,0,0,0,4.87,19a.2.2,0,1,1-.08-.4l.47-.08h-1a2.64,2.64,0,0,1-.22.72H5.53A4.27,4.27,0,0,1,6.71,19a4.29,4.29,0,0,0,2.37-.55Zm5.58.72h.48c.06-.26.13-.51.2-.72h-.49c-.06.22-.13.46-.19.72Zm6.09,0a5.85,5.85,0,0,0,0-.72h-.27a4,4,0,0,1,0,.52c0,.06,0,.13,0,.2Zm.89-.72h-.45a6.25,6.25,0,0,1,0,.72h.35c0-.23.07-.47.13-.72Zm-11.52.72h.69a2.46,2.46,0,0,0,.4-.72h-.48a3.11,3.11,0,0,1-.61.72Zm11.94-.72v0l0,0Zm-10.75.72h.62a2.54,2.54,0,0,0,.23-.72h-.53a2.75,2.75,0,0,1-.33.72Zm1.79,0h.49c.06-.28.13-.52.19-.72h-.54a5.09,5.09,0,0,1-.14.72Zm.91,0h.22c.06-.26.12-.51.18-.72h-.21c-.06.19-.13.44-.19.72Zm-1.64,0h.3a4.65,4.65,0,0,0,.16-.72h-.26a3.06,3.06,0,0,1-.2.72Zm3.18,0h.32a4.89,4.89,0,0,1,.24-.72h-.35c-.07.21-.14.46-.21.72Z"/></g><g id="Group-2" data-name="Group"><path id="Shape-8" data-name="Shape" class="cls-8" d="M8.93,17H8.08a6.33,6.33,0,0,1-1.22.51,13.57,13.57,0,0,0-2.32.93h3a4.11,4.11,0,0,1,1.3-1.35L8.93,17Zm2.45,1c0-.34.07-.67.12-1h-.83a2.91,2.91,0,0,1-1,.87,2.39,2.39,0,0,0-.7.57h2.34c0-.15,0-.3,0-.47Zm1.76,0a3.28,3.28,0,0,1-.06-1h-.45a1.28,1.28,0,0,0,.17.77.2.2,0,0,1,0,.28.21.21,0,0,1-.29,0,1.67,1.67,0,0,1-.25-1h-.31c0,.31-.09.65-.12,1,0,.15,0,.3,0,.44h1.38a.63.63,0,0,0,0-.46Zm-6.41-.86L7.1,17H5a8.71,8.71,0,0,0-2.54,1.44H3.71a13.28,13.28,0,0,1,3-1.32Zm-5.57,0L1.33,17H1.11l.05.11Zm8.33.41a2.45,2.45,0,0,0,.65-.52H9.58c-.17.14-.34.28-.51.4a4.26,4.26,0,0,0-1.08,1h.5a2.66,2.66,0,0,1,1-.92ZM3.94,17H2.06l-.36.24-.37.24q.24.47.53.91A8.29,8.29,0,0,1,3.94,17Zm15.67,0h-.54a3.25,3.25,0,0,1-.59,1,1.9,1.9,0,0,0-.27.42h1.65A5.34,5.34,0,0,1,19.61,17Zm2.86.81c.12-.2.22-.41.33-.63s0-.13,0-.19h-.5a2.77,2.77,0,0,0,.19.81Zm-1,.62h.67l.11-.19A3.24,3.24,0,0,1,21.87,17H21a3.8,3.8,0,0,0,.42,1.44Zm-7,0A2.93,2.93,0,0,1,13.91,17h-.42a2.9,2.9,0,0,0,.05.89,1.2,1.2,0,0,1,0,.55ZM20.59,17H20a4.87,4.87,0,0,0,.26,1.44H21A4,4,0,0,1,20.59,17Zm-2.83,1.44a2.36,2.36,0,0,1,.4-.68,2.77,2.77,0,0,0,.46-.76h-.23a2.86,2.86,0,0,1-1.16,1.16,1.44,1.44,0,0,1-1.6,0,2,2,0,0,1-.76-1.2h-.56a2.62,2.62,0,0,0,.63,1.44h2.82Zm-2.17-1.09A1,1,0,0,1,15.4,17h-.1a1.55,1.55,0,0,0,.56.87A1.06,1.06,0,0,0,17,17.85a2.59,2.59,0,0,0,.89-.81h-.55a2,2,0,0,1-.68.5.86.86,0,0,1-1.1-.15Zm.93-.22a1.56,1.56,0,0,0,.23-.13h-.91a.63.63,0,0,0,.06.09c0,.06.19.23.62,0Z"/></g><path id="Shape-9" data-name="Shape" class="cls-9" d="M20.4,16.08v.24a.72.72,0,0,1-.72.72H4.32a.72.72,0,0,1-.72-.72v-.24Z"/><path id="Shape-10" data-name="Shape" class="cls-10" d="M10.92,15.84h2.16a.36.36,0,1,1,0,.72H10.92a.36.36,0,1,1,0-.72Z"/><path id="Shape-11" data-name="Shape" class="cls-11" d="M5.76,6.72H18.24a.48.48,0,0,1,.48.48v8.88H5.28V7.2a.48.48,0,0,1,.48-.48Z"/><path id="Shape-12" data-name="Shape" class="cls-12" d="M6,7.44H18v7.92H6V7.44Z"/><path class="cls-13" d="M7.63,9.88l-.2.61H7.16l.66-1.94h.3l.66,1.94H8.52l-.21-.61Zm.64-.2-.19-.56C8,9,8,8.88,8,8.77H8c0,.12-.06.23-.1.35l-.19.56Z"/><path class="cls-13" d="M10.24,8.44v1.69c0,.12,0,.27,0,.36H10v-.24h0a.52.52,0,0,1-.48.27.64.64,0,0,1-.6-.71.67.67,0,0,1,.63-.75.47.47,0,0,1,.42.21h0V8.44ZM10,9.66a.47.47,0,0,0,0-.11.37.37,0,0,0-.37-.29c-.26,0-.42.23-.42.54s.14.52.41.52A.38.38,0,0,0,10,10a.46.46,0,0,0,0-.11Z"/><path class="cls-13" d="M11.43,10.49l0-.18h0a.52.52,0,0,1-.43.21.4.4,0,0,1-.43-.4c0-.34.3-.52.84-.52v0a.29.29,0,0,0-.32-.32.7.7,0,0,0-.36.1l-.06-.17a.87.87,0,0,1,.46-.12c.43,0,.53.29.53.57v.52a1.94,1.94,0,0,0,0,.33Zm0-.71c-.28,0-.59,0-.59.31a.23.23,0,0,0,.24.24.35.35,0,0,0,.34-.23.27.27,0,0,0,0-.08Z"/><path class="cls-13" d="M12,9.47c0-.14,0-.26,0-.38h.22v.22h0a.48.48,0,0,1,.44-.26.41.41,0,0,1,.4.28h0a.57.57,0,0,1,.16-.18.48.48,0,0,1,.31-.1c.18,0,.46.12.46.61v.82h-.25V9.7c0-.27-.1-.43-.3-.43a.33.33,0,0,0-.3.23.42.42,0,0,0,0,.13v.86h-.25V9.66c0-.22-.1-.38-.29-.38a.35.35,0,0,0-.31.25.35.35,0,0,0,0,.12v.84H12Z"/><path class="cls-13" d="M15.36,10.49V9.67l-.61-1.12H15l.27.54.19.4h0c.05-.13.12-.25.2-.4L16,8.55h.29l-.65,1.12v.83Z"/><path class="cls-13" d="M16.73,8.7a.16.16,0,0,1-.31,0,.15.15,0,0,1,.16-.16A.15.15,0,0,1,16.73,8.7Zm-.28,1.79V9.1h.25v1.4Z"/><path class="cls-13" d="M11.38,14.33l-1.1-1.1,1.1-1.1L11,11.79,9.6,13.23,11,14.67Zm1.25,0,1.1-1.1-1.1-1.1.34-.34,1.44,1.44L13,14.67Z"/></g></svg>