<svg id="Adam_Yi_code" data-name="Adam Yi code" xmlns="http://www.w3.org/2000/svg" viewBox="0 0 24 24"><defs><style>.cls-1{fill:#f3f3f3;}.cls-2{fill:#d5d5d5;}.cls-3{fill:#36434f;}.cls-4{fill:#465765;}.cls-5{fill:#fff;}</style></defs><title>Artboard 1web</title><g id="Adam_Yi_code-2" data-name="Adam Yi code"><path id="Shape" class="cls-1" d="M23.17,17.47v.32a1,1,0,0,1-1,1H1.79a1,1,0,0,1-1-1v-.32Z"/><path id="Shape-2" data-name="Shape" class="cls-2" d="M10.56,17.15h2.87a.48.48,0,0,1,0,1H10.56a.48.48,0,0,1,0-1Z"/><path id="Shape-3" data-name="Shape" class="cls-3" d="M3.7,5H20.3a.64.64,0,0,1,.64.64V17.47H3.06V5.66A.64.64,0,0,1,3.7,5Z"/><path id="Shape-4" data-name="Shape" class="cls-4" d="M4,6H20V16.51H4V6Z"/><path class="cls-5" d="M6.18,9.22,5.91,10H5.57l.88-2.58h.4L7.73,10H7.37L7.1,9.22ZM7,9l-.25-.74c-.06-.17-.1-.32-.13-.47h0c0,.15-.08.31-.13.47L6.25,9Z"/><path class="cls-5" d="M9.65,7.31V9.55c0,.16,0,.35,0,.48h-.3l0-.32h0a.69.69,0,0,1-.63.36.85.85,0,0,1-.79-.94.89.89,0,0,1,.83-1,.62.62,0,0,1,.56.28h0V7.31ZM9.32,8.93a.62.62,0,0,0,0-.14.5.5,0,0,0-.49-.39c-.35,0-.56.31-.56.72s.18.69.55.69a.51.51,0,0,0,.49-.4.61.61,0,0,0,0-.15Z"/><path class="cls-5" d="M11.24,10l0-.23h0a.69.69,0,0,1-.57.28.53.53,0,0,1-.57-.53c0-.45.4-.69,1.12-.69v0a.38.38,0,0,0-.42-.43.93.93,0,0,0-.48.14L10.2,8.3a1.15,1.15,0,0,1,.61-.16c.57,0,.71.39.71.76v.69a2.58,2.58,0,0,0,0,.45Zm-.05-.95c-.37,0-.79.06-.79.42a.3.3,0,0,0,.32.32.46.46,0,0,0,.45-.31.36.36,0,0,0,0-.11Z"/><path class="cls-5" d="M12.06,8.68c0-.19,0-.35,0-.5h.29l0,.3h0a.64.64,0,0,1,.58-.34.55.55,0,0,1,.53.37h0a.76.76,0,0,1,.21-.24.64.64,0,0,1,.41-.13c.25,0,.61.16.61.81V10h-.33V9c0-.36-.13-.57-.4-.57a.44.44,0,0,0-.4.31.55.55,0,0,0,0,.17V10h-.33V8.92c0-.3-.13-.51-.39-.51a.46.46,0,0,0-.42.34.47.47,0,0,0,0,.16V10h-.33Z"/><path class="cls-5" d="M16.48,10V8.94l-.82-1.49H16l.36.71c.1.19.18.35.26.53h0c.07-.17.16-.34.26-.53l.37-.71h.38l-.87,1.48V10Z"/><path class="cls-5" d="M18.29,7.66a.21.21,0,0,1-.42,0,.21.21,0,0,1,.21-.21A.2.2,0,0,1,18.29,7.66ZM17.91,10V8.18h.34V10Z"/><path class="cls-5" d="M11.17,15.14,9.7,13.68l1.47-1.47-.45-.45L8.81,13.68l1.92,1.92Zm1.66,0,1.47-1.47-1.47-1.47.45-.45,1.92,1.92-1.92,1.92Z"/></g></svg>