<svg version="1" xmlns="http://www.w3.org/2000/svg" width="2520" height="2520" viewBox="0 0 1890.000000 1890.000000"><path d="M184.1 356c-1 3-7.2 21.7-13.6 41.5-6.4 19.8-12.9 39.8-14.5 44.5-1.5 4.7-8.7 26.7-16 49-7.2 22.3-14.2 43.6-15.5 47.5-4 11.7-16.6 50.6-17 52.3-.2 1-2 6.4-4 12.2-1.9 5.8-3.7 11.2-4 12-.2.8-2.5 7.8-5 15.5s-10 30.6-16.6 51C71.3 701.8 64.1 723.7 62 730c-6.3 19.1-17.1 52.2-18.5 56.8l-1.3 4.2 66-.2 66-.3 3.9-15c2.2-8.3 4.1-15.7 4.3-16.5.7-2.8 13.7-52.5 14.1-54 .4-1.3 8.6-1.5 67.4-1.5 66.5-.1 67 0 67.6 2 .8 2.7 12.5 46.9 14.9 56.5.3.8 2 7.6 3.9 15l3.5 13.5 69.1.3c38 .1 69.1 0 69.1-.2 0-.3-1.1-3.5-2.4-7.3-1.3-3.7-6.6-19.6-11.6-35.3-5.1-15.7-11.4-35-14-43-2.7-8-10.5-32.1-17.5-53.5-7-21.5-14.4-44.2-16.5-50.5-2.1-6.3-9.3-28.4-16-49-19.5-59.9-28-86-30.5-93.5-2.7-7.9-26.7-81.6-31.6-97-1.8-5.5-3.4-10.2-3.6-10.4-.2-.3-36.8-.5-81.3-.5l-80.9-.1-2 5.5zm81.8 99.2c.6 1.8 2.2 7.6 3.5 12.8 1.4 5.2 3.4 12.9 4.5 17s2.9 11.1 4.1 15.5c1.2 4.4 2.8 10.5 3.6 13.5.9 3 1.7 6.2 1.9 7 .3 1.5 3.4 13.1 9.9 37.5 1.9 7.1 4.6 17.3 6 22.5 1.3 5.2 3.5 13.1 4.7 17.5 3.7 13.8 3.7 13.5-.7 13.5-21.6.3-81.8 0-82.2-.4-.3-.3.7-5.1 2.2-10.7 1.5-5.6 2.9-10.9 3.1-11.8.3-.9 2.5-9.3 5-18.6 2.5-9.4 4.7-17.7 4.9-18.6.3-.9 1.9-6.9 3.6-13.4 1.7-6.5 3.3-12.5 3.5-13.4.2-.9 1.5-5.9 3-11.1 1.4-5.2 2.8-10.2 3-11.1.5-2.3 11.2-42.5 12.5-47.2 1.3-4.6 2.5-4.7 3.9-.5zM733.9 350.8c-1.2.2-1.4 11.9-1.3 82.2 0 56.7-.3 82-1 82-.6 0-2.7-3.5-4.6-7.8-10.4-23.2-30.1-41.5-54.7-50.8-13-4.9-25.2-6.9-42.3-6.9-23 .1-39.2 3.7-57.7 13-11.9 5.9-20 11.9-29.9 21.9-20.8 21.2-35.4 53.4-40.8 90.1-.8 5.5-1.8 11.8-2.1 14-1.1 6.7-1.4 53.4-.4 62.5 1.3 13.4 4.5 33.5 5.4 35 .2.4.6 1.7.8 3.1 2.5 13.7 11 35.4 19.3 49.2 11 18.4 27.2 34.2 44.4 43.4 6 3.3 20 8.8 24.6 9.8 14.9 3.3 19.2 3.7 34.9 3.8 22.6.1 34.6-2.3 52.4-10.5 14.9-6.9 26.5-15.8 36.2-27.8 3.5-4.4 10.2-15.4 10.5-17.5.5-3 2.5-6.5 3.7-6.5 1.1 0 1.3 5.5 1.3 29l-.1 29h125.4V350.5h-61.3c-33.7 0-61.9.1-62.7.3zM694 548c13.6 4.1 23.6 13.4 30.4 28.1 6.5 14.4 8.5 26.4 8.1 48.9-.3 17.4-.4 19.3-2 26-.5 1.9-.9 3.7-1 4-.1.3-.5 2.1-.9 4s-2.7 7.3-4.9 12c-9 18.3-24.2 28.1-43.9 28.2-25.7.1-43-15.9-50.3-46.3-2.3-9.8-2.8-13.7-2.9-27.4-.1-22 1.5-32.7 7.1-46.5 10.9-26.7 34.3-38.8 60.3-31zM1062.8 445.5c-.2.1-5.6.5-12.1.9-6.4.4-12.3.8-13 1.1-.6.2-3.5.6-6.4.9-2.8.3-5.7.8-6.5 1-.7.3-2.6.7-4.3 1-26.1 4.3-53.2 16.2-71.5 31.5-23.2 19.3-36.7 45.3-39.4 75.8l-.4 5.3H1020.9l1.2-4.3c1.6-6.2 3.5-9.3 8.4-14.1 8.8-8.7 18.9-12.1 35.5-12 9.4 0 12.5.5 17.1 2.3 10.9 4.2 18.3 11.7 20.9 21.1.7 2.5 1.4 9.6 1.5 15.7.1 9.7-.1 11.3-1.4 11.4-4.7.3-10.7.7-20.6 1.4-6 .3-13.7.8-17 1.1-3.3.2-10.3.6-15.5.9-35.8 2-52.7 4.1-72.5 9.1-45.2 11.4-74.8 36.7-83.4 70.9-2 8.2-2.3 10.3-2.6 24-.2 10.5.1 16.1 1.5 22.5 7.4 35.6 33.6 63.8 71.1 76.4 8.3 2.8 9.9 3.1 21.9 5 15.3 2.4 44 .6 54.5-3.4 1.7-.6 3-1.1 3-1 0 .1 1.3-.3 2.8-.9 1.6-.6 3.2-1.1 3.7-1.1 2.1 0 18.2-8 24.1-12.1 8.2-5.5 20.7-17.9 24.8-24.7 1.8-2.8 3.8-5.2 4.4-5.2.9 0 1.2 6 1.2 22.3v22.2l61.1.3 61.1.2-.2-121.7c-.1-90.8-.5-123.3-1.4-127.8-10.8-53.5-59.8-88.7-132.2-95-7.7-.7-30.6-1.4-31.1-1zm42.6 219.5c-.1 14.2-.2 14.7-3.3 21.2-7.5 15.7-26.8 25.8-49.6 25.9-12.3 0-24.2-4-30.2-10.3-4.3-4.5-7.3-13.8-6.7-20.7 1.4-16.4 15.5-26.1 40.3-27.6 19.6-1.3 39.6-2.7 39.8-2.9.1-.1 2.3-.1 5-.1h4.8l-.1 14.5zM1487.8 447.5c-.2.2-2.5.5-5.3.9-2.7.3-6.1.8-7.5 1.1-1.4.4-3.6.8-4.9 1.1-5.1 1.1-17.9 6.6-25.2 10.8-9.6 5.7-23.1 18.3-29.6 27.8-5.4 7.8-11 19-13.8 27.6-3.4 10.4-3.9 6.4-4-28.9v-33.4h-122v168.2l-.1 168.3h125.2v-99.3c.1-54.5.3-101.9.7-105.2 1.8-18.8 12.5-32.8 28.2-37 4.8-1.3 8.7-1.6 15.5-1.3 7.9.5 10 1 16.3 4.1 9.3 4.7 14.5 11.4 17.9 23.2l2.3 8V791h119.1v-99.8c.1-54.8.3-102.4.6-105.8 1.4-13.8 9.4-27.1 19.8-32.8 10.6-5.8 27.6-6.2 39-1 10.1 4.6 16 12.2 19.6 25.5 1.6 5.9 1.8 14.4 2 109.4.1 56.6.3 103.3.3 103.7.1.5 28.2.8 62.6.8h62.6l-.4-123.3c-.3-122.1-.3-123.3-2.5-132.4-5.8-24.9-14.7-41.9-29.6-56.9-11.5-11.4-22.2-18.2-39.1-24.7-21.2-8.1-54.7-8.2-78.5 0-12.3 4.2-25.8 11.8-34.4 19.2-13.1 11.5-23.1 26.5-28.1 42.1-2.2 6.8-3 7.8-4.4 5.1-.7-1.2-1-2.1-.7-2.1.3 0 0-1.5-.5-3.3-.6-1.7-1.2-4.1-1.4-5.2-.3-1.1-1.6-5-3.1-8.5-8.3-20.4-23.2-36.2-42.5-44.8-7.3-3.3-19.8-6.8-27.9-7.8-5.5-.6-25.7-1.4-26.2-.9zM1141 1067.6c-16 2.7-30.6 10.8-39.4 22-3.8 4.9-8.5 12.9-9.3 15.9-2.8 11-3.3 14.2-3.2 22.2.3 16.5 6.2 29.7 18.4 41.2 11.5 10.7 26.4 16.3 43.4 16.3 32.9.1 59-22.2 62-52.8 3.4-35.8-24.1-64.9-61.4-65.1-4.4-.1-9.1.1-10.5.3zM635.2 1100.8c-.5.1 32.9 67.9 74.3 150.5l75.1 150.2-.1 68.5c0 37.7.1 69.1.3 69.7.3 1 14.2 1.3 64.8 1.3H914v-139.2l75-150.1c41.2-82.5 74.8-150.3 74.5-150.6-1-1-133.6-.6-134.4.4-.4.5-3.4 7.1-6.6 14.5-3.1 7.4-6.6 15.3-7.6 17.5-.9 2.3-3.8 9-6.4 15-2.5 6.1-5.2 12.3-6 14-2.3 5.2-5.1 11.6-11.5 26.5-3.4 8-7.1 16.3-8 18.5-1 2.2-4.6 10.5-8 18.5-3.4 8-7.3 16.9-8.6 19.8-1.3 2.9-2.4 5.5-2.4 5.7 0 .2-1.2 3-2.6 6.2-1.5 3.2-4.1 9.2-5.9 13.3-1.8 4.1-3.8 7.6-4.6 7.8-.9.1-2.7-2.8-5.1-8.5-2-4.9-11.4-26.6-20.8-48.3-9.4-21.7-20.5-47.4-24.7-57-4.1-9.6-8.3-19.3-9.3-21.5-1-2.2-5.5-12.5-10-23-4.5-10.4-8.3-19.2-8.6-19.4-.5-.5-135.8-.8-137.2-.3zM1088.9 1204.2c-.1.2-.2 76-.3 168.5l-.1 168.3h125.1l-.1-168.3v-168.2l-62.2-.3c-34.3-.1-62.4-.1-62.4 0z"/></svg>